<svg id="svg" version="1.1" xmlns="http://www.w3.org/2000/svg" xmlns:xlink="http://www.w3.org/1999/xlink" width="400" height="478.1065088757397" viewBox="0, 0, 400,478.1065088757397"><g id="svgg"><path id="path0" d="M143.195 157.594 L 126.433 174.359 133.434 181.360 L 140.434 188.361 150.196 178.599 L 159.957 168.838 169.919 178.795 L 179.882 188.752 189.941 178.698 L 200.000 168.645 210.059 178.698 L 220.118 188.752 230.081 178.795 L 240.043 168.838 249.804 178.599 L 259.566 188.361 266.566 181.360 L 273.567 174.359 256.805 157.594 L 240.044 140.830 230.081 150.787 L 220.118 160.744 210.067 150.698 L 200.015 140.652 189.945 150.694 L 179.874 160.736 169.915 150.783 L 159.956 140.830 143.195 157.594 " stroke="none" fill="#f4941c" fill-rule="evenodd"></path><path id="path1" d="M184.024 0.424 C 86.696 8.165,9.181 85.122,0.587 182.540 C -9.186 293.322,73.636 391.016,184.596 399.590 C 307.689 409.101,410.256 305.458,399.411 182.520 C 389.748 72.978,293.619 -8.292,184.024 0.424 M207.138 28.011 C 316.132 33.107,393.071 135.493,367.211 241.026 C 352.641 300.485,306.413 348.661,247.830 365.439 L 245.759 366.032 245.759 298.104 L 245.759 230.175 266.469 209.467 C 277.860 198.078,287.179 188.580,287.179 188.360 C 287.179 188.140,284.204 184.988,280.568 181.357 L 273.956 174.753 267.061 181.657 C 263.269 185.454,259.988 188.560,259.769 188.560 C 259.551 188.560,251.872 196.059,242.704 205.225 L 226.036 221.890 226.036 296.095 L 226.036 370.300 220.217 370.987 C 207.998 372.430,192.073 372.428,179.779 370.984 L 173.964 370.300 173.964 296.099 L 173.964 221.897 157.300 205.229 C 148.134 196.061,140.454 188.560,140.234 188.560 C 140.014 188.560,136.731 185.454,132.939 181.657 L 126.044 174.753 119.432 181.357 C 115.796 184.988,112.821 188.140,112.821 188.360 C 112.821 188.580,122.140 198.078,133.531 209.467 L 154.241 230.175 154.241 298.104 L 154.241 366.032 152.170 365.439 C 81.589 345.225,31.119 280.962,28.044 207.390 C 24.089 112.761,97.466 32.353,191.716 28.033 C 195.296 27.869,198.402 27.711,198.619 27.683 C 198.836 27.654,202.670 27.802,207.138 28.011 M288.757 403.202 C 248.246 407.837,245.617 469.082,285.602 476.709 C 310.949 481.544,330.801 465.409,330.719 440.039 C 330.642 415.950,312.966 400.432,288.757 403.202 M362.130 403.746 C 349.598 406.268,342.601 414.706,344.366 425.170 C 346.035 435.063,354.307 441.297,368.256 443.174 C 379.518 444.689,385.066 449.031,385.165 456.410 C 385.347 469.873,360.124 472.949,352.071 460.446 C 347.447 453.266,339.237 456.571,342.964 464.111 C 349.389 477.112,371.964 481.702,386.084 472.878 C 397.686 465.627,398.310 448.528,387.279 440.136 C 383.216 437.045,379.521 435.873,368.391 434.145 C 361.356 433.053,357.202 430.864,355.246 427.219 C 347.520 412.825,375.135 405.567,384.418 419.552 C 386.705 422.997,389.529 424.145,392.053 422.654 C 398.260 418.987,388.517 406.366,377.470 403.761 C 374.351 403.026,365.749 403.018,362.130 403.746 M4.827 405.295 L 3.353 406.646 3.353 440.237 L 3.353 473.828 4.837 475.188 L 6.322 476.548 27.587 476.440 L 48.852 476.331 49.876 475.369 C 52.153 473.230,52.048 469.685,49.648 467.666 L 48.460 466.667 30.739 466.667 L 13.018 466.667 13.018 436.647 L 13.018 406.627 11.677 405.286 C 9.726 403.336,6.960 403.340,4.827 405.295 M64.844 404.698 C 62.731 405.987,62.721 406.105,62.729 431.321 C 62.738 461.939,63.495 465.129,72.311 471.671 C 89.645 484.533,116.686 477.625,122.159 458.938 C 123.007 456.043,123.473 410.038,122.685 407.109 C 121.787 403.774,117.116 402.726,114.556 405.286 L 113.215 406.627 113.203 428.856 C 113.190 452.755,113.005 455.806,111.365 459.171 C 104.850 472.541,80.617 472.091,74.239 458.482 L 73.176 456.213 72.978 431.755 C 72.829 413.283,72.661 407.088,72.290 406.441 C 70.875 403.968,67.382 403.151,64.844 404.698 M142.564 405.286 L 141.223 406.627 141.223 439.822 C 141.223 476.257,141.119 474.659,143.577 475.930 C 145.056 476.695,147.252 476.695,148.731 475.930 C 151.132 474.688,151.083 475.224,151.106 450.217 L 151.128 427.416 162.303 449.704 C 174.571 474.171,174.187 473.570,177.524 473.570 C 180.903 473.570,180.667 473.946,192.740 449.296 L 203.748 426.820 203.945 450.195 C 204.107 469.468,204.240 473.718,204.701 474.412 C 206.033 476.416,209.148 477.122,211.435 475.939 C 213.957 474.635,213.807 476.900,213.807 440.109 L 213.807 406.627 212.465 405.286 C 210.934 403.755,208.418 403.447,206.316 404.534 C 205.078 405.175,205.508 404.331,187.159 442.110 C 182.180 452.361,178.017 460.749,177.907 460.749 C 177.797 460.749,171.496 448.300,163.903 433.083 C 148.738 402.691,149.519 403.949,145.819 403.946 C 144.168 403.945,143.721 404.129,142.564 405.286 M233.910 405.030 C 233.187 405.678,232.553 406.749,232.336 407.692 C 231.862 409.745,231.856 470.705,232.329 472.745 C 233.346 477.129,239.674 478.004,241.564 474.021 C 242.477 472.098,242.556 408.694,241.648 406.522 C 240.524 403.832,236.181 402.995,233.910 405.030 M300.912 412.849 C 324.929 418.278,328.704 454.422,306.404 465.432 C 288.181 474.429,267.903 462.337,266.784 441.807 C 265.715 422.188,281.809 408.531,300.912 412.849 " stroke="none" fill="#040404" fill-rule="evenodd"></path><path id="path2" d="M132.939 181.262 C 136.731 185.059,139.923 188.166,140.031 188.166 C 140.139 188.166,137.126 185.059,133.333 181.262 C 129.541 177.465,126.350 174.359,126.241 174.359 C 126.133 174.359,129.147 177.465,132.939 181.262 M266.662 181.361 L 259.763 188.363 266.765 181.464 C 270.616 177.669,273.767 174.518,273.767 174.462 C 273.767 174.181,273.072 174.856,266.662 181.361 " stroke="none" fill="#d47c1c" fill-rule="evenodd"></path><path id="path3" d="M132.939 181.657 C 136.731 185.454,139.923 188.560,140.031 188.560 C 140.139 188.560,137.126 185.454,133.333 181.657 C 129.541 177.860,126.350 174.753,126.241 174.753 C 126.133 174.753,129.147 177.860,132.939 181.657 M266.662 181.755 L 259.763 188.757 266.765 181.858 C 270.616 178.064,273.767 174.913,273.767 174.856 C 273.767 174.575,273.072 175.250,266.662 181.755 " stroke="none" fill="#0c0404" fill-rule="evenodd"></path><path id="path4" d="" stroke="none" fill="#405010" fill-rule="evenodd"></path></g></svg>