<?xml version="1.0" standalone="no"?>
<!DOCTYPE svg PUBLIC "-//W3C//DTD SVG 20010904//EN"
 "http://www.w3.org/TR/2001/REC-SVG-20010904/DTD/svg10.dtd">
<svg version="1.0" xmlns="http://www.w3.org/2000/svg"
 width="1014.000000pt" height="1014.000000pt" viewBox="0 0 1014.000000 1014.000000"
 preserveAspectRatio="xMidYMid meet">
<metadata>
Created by potrace 1.11, written by Peter Selinger 2001-2013
</metadata>
<g transform="translate(0.000000,1014.000000) scale(0.100000,-0.100000)"
fill="#000000" stroke="none">
<path d="M4809 10135 c-2 -1 -49 -6 -104 -9 -56 -4 -112 -8 -125 -11 -14 -2
-52 -6 -85 -10 -33 -3 -71 -7 -85 -9 -85 -12 -135 -19 -210 -33 -47 -9 -94
-17 -105 -18 -11 -2 -50 -10 -86 -19 -37 -8 -78 -17 -90 -20 -106 -20 -570
-161 -644 -196 -11 -5 -67 -28 -125 -51 -146 -58 -461 -213 -610 -301 -69 -41
-136 -80 -150 -88 -14 -8 -27 -17 -30 -20 -3 -3 -63 -44 -135 -92 -327 -219
-695 -544 -941 -829 -49 -57 -96 -111 -104 -120 -18 -19 -30 -35 -95 -119 -28
-36 -53 -67 -56 -70 -16 -13 -190 -269 -258 -380 -78 -125 -190 -324 -217
-383 -8 -18 -18 -39 -23 -47 -5 -8 -18 -35 -29 -60 -11 -25 -37 -81 -58 -125
-187 -407 -349 -998 -399 -1460 -4 -33 -9 -73 -11 -90 -26 -219 -25 -851 1
-1018 2 -12 6 -49 10 -82 3 -33 8 -71 10 -85 5 -30 15 -94 20 -135 3 -16 12
-68 21 -115 25 -135 25 -135 49 -235 9 -38 18 -77 20 -85 27 -130 170 -559
239 -715 255 -581 561 -1054 951 -1473 222 -238 506 -494 709 -637 16 -11 40
-29 55 -41 69 -55 333 -224 491 -313 72 -41 349 -179 420 -210 30 -12 73 -31
95 -41 22 -9 92 -36 155 -60 63 -23 124 -46 135 -50 32 -14 276 -90 306 -95
16 -3 38 -9 51 -14 22 -8 262 -64 318 -75 162 -28 187 -33 245 -41 22 -3 51
-8 65 -10 33 -7 202 -24 315 -33 186 -14 753 -6 865 12 14 2 52 7 85 10 33 3
69 8 80 10 11 2 47 7 80 10 33 4 67 9 75 11 8 2 31 7 50 10 30 5 74 13 155 29
445 90 910 255 1314 468 74 38 152 81 173 94 21 13 40 24 43 24 9 0 236 146
352 227 294 204 627 499 853 753 36 41 73 82 83 92 29 30 249 312 287 368 19
28 40 57 45 63 6 7 49 73 97 147 324 510 529 1002 675 1614 6 26 22 103 28
136 3 14 7 36 10 50 6 28 40 249 50 320 16 122 20 248 20 620 0 358 -4 491
-19 580 -2 14 -8 52 -12 85 -4 33 -8 67 -9 75 -11 86 -51 295 -81 420 -14 58
-27 112 -29 120 -2 8 -19 69 -39 135 -146 499 -356 946 -651 1390 -91 136
-286 400 -314 425 -3 3 -31 34 -61 70 -275 324 -646 652 -1025 904 -415 277
-784 456 -1245 605 -249 80 -266 85 -447 125 -235 52 -426 83 -628 102 -38 3
-86 8 -105 10 -43 6 -657 14 -661 9z m636 -709 c22 -3 69 -8 105 -11 74 -7 71
-7 245 -34 147 -24 135 -21 275 -55 189 -45 223 -54 360 -100 175 -58 227 -77
329 -121 181 -77 295 -132 420 -202 51 -29 95 -53 97 -53 8 0 240 -150 327
-212 86 -61 293 -221 307 -237 3 -3 43 -40 90 -81 488 -432 890 -1009 1142
-1635 120 -300 221 -679 263 -985 2 -14 8 -61 14 -105 33 -248 36 -732 6 -995
-12 -108 -17 -143 -30 -227 -53 -335 -176 -759 -296 -1021 -16 -34 -29 -65
-29 -68 0 -2 -36 -77 -80 -166 -128 -255 -267 -476 -443 -708 -282 -370 -695
-754 -1062 -989 -44 -28 -84 -54 -90 -59 -47 -36 -387 -219 -515 -275 -19 -9
-57 -25 -85 -37 -135 -61 -508 -190 -546 -190 -5 0 -9 654 -9 1727 l0 1728
525 525 525 525 -592 593 c-326 326 -596 595 -599 597 -3 3 -119 -108 -258
-247 l-251 -252 -250 249 c-137 138 -254 250 -260 250 -6 0 -123 -112 -261
-250 l-249 -249 -250 249 c-137 138 -253 249 -258 248 -4 -1 -81 -75 -170
-165 -90 -90 -356 -356 -592 -593 l-430 -430 525 -525 525 -524 0 -1729 0
-1729 -32 7 c-88 19 -426 139 -536 190 -29 14 -55 25 -58 25 -12 0 -304 150
-399 205 -826 475 -1500 1247 -1855 2120 -29 72 -56 139 -61 150 -4 11 -26 74
-48 140 -111 338 -176 660 -209 1035 -15 174 -7 656 13 815 2 17 6 50 10 75 3
25 8 63 10 85 37 301 174 788 306 1082 12 26 28 64 36 83 77 177 244 475 371
660 59 86 211 289 237 316 5 6 28 33 50 59 126 152 309 334 536 530 147 128
489 360 684 465 424 228 895 398 1292 464 129 22 216 36 258 41 28 3 66 8 85
10 19 3 78 8 130 11 52 4 97 8 99 10 5 5 561 -4 606 -10z m-868 -4053 c4 4
119 118 255 255 l248 247 255 -255 255 -256 253 253 252 253 247 -247 c137
-136 248 -251 248 -255 0 -5 -191 -199 -425 -433 l-425 -425 0 -1879 0 -1879
-32 -6 c-18 -4 -55 -9 -83 -12 -27 -2 -59 -7 -70 -9 -124 -26 -774 -26 -950 0
-16 2 -50 7 -75 10 -25 3 -60 8 -77 11 l-33 6 0 1879 0 1880 -425 425 c-234
234 -425 428 -425 432 0 4 111 118 247 254 l248 248 252 -252 c139 -139 256
-249 260 -245z"/>
</g>
</svg>
